<?xml version="1.0" encoding="UTF-8" standalone="no"?>
<svg
   xmlns:dc="http://purl.org/dc/elements/1.1/"
   xmlns:cc="http://creativecommons.org/ns#"
   xmlns:rdf="http://www.w3.org/1999/02/22-rdf-syntax-ns#"
   xmlns:svg="http://www.w3.org/2000/svg"
   xmlns="http://www.w3.org/2000/svg"
   xmlns:sodipodi="http://sodipodi.sourceforge.net/DTD/sodipodi-0.dtd"
   xmlns:inkscape="http://www.inkscape.org/namespaces/inkscape"
   version="1.1"
   x="0px"
   y="0px"
   width="128"
   height="128"
   viewBox="0, 0, 128, 128"
   id="svg3753"
   sodipodi:docname="enabled.svg"
   inkscape:version="0.92.3 (2405546, 2018-03-11)"
   inkscape:label="Disabled">
  <metadata
     id="metadata3757">
    <rdf:RDF>
      <cc:Work
         rdf:about="">
        <dc:format>image/svg+xml</dc:format>
        <dc:type
           rdf:resource="http://purl.org/dc/dcmitype/StillImage" />
        <dc:title />
      </cc:Work>
    </rdf:RDF>
  </metadata>
  <sodipodi:namedview
     pagecolor="#ffffff"
     bordercolor="#666666"
     borderopacity="1"
     objecttolerance="10"
     gridtolerance="10"
     guidetolerance="10"
     inkscape:pageopacity="0"
     inkscape:pageshadow="2"
     inkscape:window-width="958"
     inkscape:window-height="1008"
     id="namedview3755"
     showgrid="false"
     inkscape:zoom="1"
     inkscape:cx="65.877726"
     inkscape:cy="64"
     inkscape:window-x="-7"
     inkscape:window-y="0"
     inkscape:window-maximized="0"
     inkscape:current-layer="g3749" />
  <g
     id="Background">
    <rect
       x="0"
       y="0"
       width="128"
       height="128"
       id="rect3736"
       style="fill:#000000;fill-opacity:0" />
  </g>
  <g
     id="g3749"
     inkscape:label="disabled">
    <path
       inkscape:connector-curvature="0"
       style="fill:#737370;stroke-width:1.00000024"
       d="M 18.092026,6 H 109.90325 C 116.55245,6 122,11.441023 122,18.096029 V 109.90196 C 122,116.55905 116.55245,122 109.90325,122 H 18.092026 C 11.436019,122 6,116.55905 6,109.90196 V 18.096029 C 6,11.441023 11.436019,6 18.092026,6"
       id="path3836"
       inkscape:label="back" />
    <g
       transform="matrix(0.00368324,0,0,-0.00368324,70.02713,116.02465)"
       id="g4"
       style="fill:#82d1f5;fill-opacity:1;stroke:none">
      <path
         d="m 3041,11675 c -88,-151 -161,-281 -161,-289 0,-8 164,-295 365,-636 201,-342 362,-626 359,-631 -3,-5 -278,-9 -649,-9 h -643 l -163,-277 c -89,-153 -162,-283 -162,-289 0,-6 73,-135 162,-287 l 163,-277 h 982 c 924,0 984,-1 998,-17 33,-40 1082,-1839 1082,-1858 1,-20 -3,-20 -1087,-23 -696,-1 -1095,1 -1106,8 -10,5 -238,383 -506,840 l -488,830 -335,-2 -336,-3 -163,-278 -164,-279 312,-531 c 172,-293 317,-540 323,-550 8,-13 7,-20 -4,-27 -9,-6 -300,-10 -747,-10 H 342 L 181,6806 C 92,6655 20,6526 20,6519 c 0,-16 300,-528 322,-551 17,-17 65,-18 753,-18 483,0 735,-3 735,-10 0,-5 -144,-255 -320,-555 l -321,-546 163,-277 163,-277 337,-3 336,-2 489,832 489,833 1107,3 c 930,2 1107,0 1107,-12 0,-14 -1062,-1829 -1088,-1858 -14,-17 -74,-18 -997,-18 h -982 l -149,-252 c -81,-139 -156,-267 -166,-284 l -18,-30 164,-280 164,-279 643,-3 c 354,-1 647,-6 652,-11 5,-5 -148,-276 -357,-631 -201,-342 -366,-630 -366,-639 0,-9 72,-137 159,-286 l 159,-270 335,-3 335,-2 368,625 c 257,439 372,625 382,623 9,-2 158,-246 333,-543 l 317,-540 334,-3 333,-2 160,272 c 88,150 160,282 160,293 0,11 -217,390 -483,841 -265,452 -482,829 -482,838 0,23 1090,1876 1104,1876 11,0 1093,-1833 1103,-1868 3,-12 -167,-310 -483,-848 -268,-456 -487,-833 -487,-839 0,-5 73,-135 162,-287 l 163,-278 h 333 332 l 319,545 c 194,331 325,545 334,545 9,0 152,-233 381,-623 l 365,-622 336,-3 335,-2 161,276 c 89,151 162,280 162,286 0,6 -163,288 -361,626 -199,339 -362,623 -363,631 -1,14 65,17 646,21 l 647,5 161,273 c 88,150 160,279 160,286 0,13 -295,521 -320,551 -11,13 -144,15 -997,17 l -984,3 -549,935 c -302,514 -546,938 -544,942 3,4 502,8 1109,8 h 1103 l 96,-162 c 53,-90 273,-464 489,-833 l 394,-670 h 338 338 l 158,270 c 87,149 159,276 159,284 0,8 -142,256 -315,551 -173,295 -315,542 -315,548 0,9 178,12 733,12 572,0 737,3 749,13 23,18 330,546 326,561 -2,7 -75,135 -162,284 l -160,272 h -727 c -400,0 -734,3 -743,6 -9,3 -16,11 -16,16 0,6 140,248 311,539 171,292 313,538 316,549 3,12 -52,115 -157,294 l -162,276 h -334 -333 l -55,-92 C 9819,7428 9626,7103 9613,7092 c -24,-18 -2186,-18 -2201,1 -8,9 133,255 531,933 298,507 548,929 556,938 12,15 102,16 995,16 h 982 l 162,275 c 89,152 162,282 162,289 0,15 -292,519 -318,549 -14,16 -58,17 -653,17 -417,0 -640,3 -644,10 -3,6 157,288 357,628 199,339 362,626 363,637 0,11 -72,143 -160,293 l -160,272 -334,-2 -334,-3 -366,-624 c -202,-344 -372,-626 -378,-628 -6,-2 -151,236 -323,529 -172,293 -320,541 -328,551 -14,16 -43,17 -342,17 h -327 l -163,-277 c -90,-153 -163,-283 -163,-289 0,-6 215,-377 478,-825 263,-448 483,-825 488,-839 8,-22 -53,-131 -539,-958 -351,-597 -553,-932 -562,-930 -15,3 -1092,1830 -1100,1864 -3,15 143,272 482,849 267,455 486,832 486,838 0,11 -229,408 -296,515 l -34,52 h -329 -329 l -312,-532 c -172,-293 -319,-541 -328,-550 -8,-10 -18,-15 -23,-13 -4,3 -173,286 -375,630 l -367,625 h -332 -332 z"
         id="path2"
         inkscape:connector-curvature="0"
         style="fill:#82d1f5;fill-opacity:1" />
    </g>
    <path
       d="m 56.215393,64.682398 c 2.144123,-3.911292 4.167137,-6.548459 10.221836,-6.876666 0.09464,1.038394 0.535332,1.967841 1.209656,2.680864 -5.223441,0.06531 -7.075159,2.051678 -8.835902,5.128835 2.638593,1.668296 3.689153,5.110932 2.320401,8.004632 l -1.940605,4.094061 c 4.401497,4.124126 7.153994,9.981768 7.153994,16.49152 0,12.475706 -10.112913,22.588536 -22.587782,22.588536 -12.476336,0 -22.589255,-10.11283 -22.589255,-22.588536 0,-12.478458 10.112919,-22.589225 22.589255,-22.589225 1.43609,0 2.843517,0.137578 4.207965,0.392707 l 1.790121,-3.776583 c 1.185296,-2.506015 3.8418,-3.871179 6.460316,-3.550145 z m 10.339352,-8.388016 -4.709613,-3.930652 1.73782,-2.087488 4.418651,3.690559 c -0.70084,0.599829 -1.214654,1.40746 -1.446858,2.327581 z m 3.439044,-3.312202 -0.893606,-5.786683 2.690184,-0.401316 1.001126,6.491848 c -0.572572,-0.25513 -1.19749,-0.402033 -1.864632,-0.402033 -0.321062,0 -0.631372,0.03213 -0.933072,0.09819 z m 0.857808,15.195189 -0.985334,-6.395129 c 0.340368,0.07885 0.69727,0.124698 1.060598,0.124698 0.585452,0 1.145158,-0.111067 1.658972,-0.310273 l 0.952364,6.177957 z m 8.24754,-3.855429 -5.09656,-3.626093 c 0.67074,-0.621297 1.148742,-1.443264 1.342936,-2.372712 l 5.327252,3.79305 z m 2.53246,-10.66541 -6.244518,3.043472 c -0.146902,-0.936621 -0.576156,-1.780078 -1.21037,-2.435072 l 6.263824,-3.053502 z"
       id="path7"
       inkscape:connector-curvature="0"
       style="fill:#82d1f5;fill-opacity:1;stroke-width:0.71661764" />
    <g
       id="g899"
       style="fill:#82d1f5;fill-opacity:1"
       transform="matrix(1.4,0,0,1.4,-59.17426,-54.554472)">
      <path
         inkscape:connector-curvature="0"
         id="path2-7"
         d="m 60.701723,47.850818 c -1.015809,0.511842 -1.842631,0.941001 -1.842631,0.952813 0,0.0315 3.386031,2.275728 3.602579,2.385971 0.460658,0.240171 1.783572,0.626021 2.937185,0.858319 4.976678,0.996123 12.099153,0.889817 20.8044,-0.318917 l 1.023685,-0.145678 2.311163,-1.381973 c 1.271729,-0.759888 2.311161,-1.393784 2.3151,-1.405596 0,-0.01181 -0.712643,-0.397662 -1.582772,-0.862257 -0.874068,-0.464595 -1.653643,-0.881943 -1.732389,-0.933127 l -0.149616,-0.09056 -12.922036,0.0079 -12.925975,0.0039 z"
         style="fill:#82d1f5;fill-opacity:1;stroke:none;stroke-width:0.00393724" />
      <path
         inkscape:connector-curvature="0"
         id="path4"
         d="m 53.614682,51.154166 c -1.381973,0.881943 -2.511962,1.610333 -2.511962,1.622145 0,0.03937 8.256402,3.004118 8.311524,2.984432 0.02362,-0.0079 0.29923,-0.669332 0.610273,-1.47253 l 0.559089,-1.452843 -0.08268,-0.08268 c -0.114181,-0.110243 -4.260099,-3.161608 -4.327032,-3.181294 -0.02756,-0.01181 -1.181174,0.704767 -2.55921,1.582772 z"
         style="fill:#82d1f5;fill-opacity:1;stroke:none;stroke-width:0.00393724" />
      <path
         inkscape:connector-curvature="0"
         id="path6"
         d="m 91.947698,51.106919 c -1.165425,0.85832 -2.161547,1.598522 -2.208794,1.645769 l -0.08268,0.08268 0.559088,1.452843 c 0.307105,0.803198 0.582711,1.464655 0.610273,1.47253 0.05512,0.01969 8.311522,-2.948997 8.311522,-2.984432 0,-0.01575 -4.968801,-3.193105 -5.039671,-3.220666 -0.01575,-0.0039 -0.984313,0.692955 -2.149736,1.551274 z"
         style="fill:#82d1f5;fill-opacity:1;stroke:none;stroke-width:0.00393724" />
      <path
         inkscape:connector-curvature="0"
         id="path8"
         d="m 62.540416,53.611007 c -0.03543,0.110243 -0.444909,2.649766 -0.429159,2.665515 0.01575,0.01969 2.523773,0.322854 8.579256,1.043369 1.559149,0.185051 2.893875,0.346478 2.964745,0.35829 l 0.125992,0.02362 V 56.323769 54.94967 L 73.635572,54.92605 C 73.296969,54.87093 62.74909,53.56376 62.658534,53.56376 c -0.05512,0 -0.106306,0.02362 -0.118118,0.04725 z"
         style="fill:#82d1f5;fill-opacity:1;stroke:none;stroke-width:0.00393724" />
      <path
         inkscape:connector-curvature="0"
         id="path10"
         d="m 81.931347,54.252778 c -2.976557,0.377975 -5.425524,0.68508 -5.441273,0.689018 -0.01969,0 -0.0315,0.622084 -0.0315,1.378035 v 1.381973 l 0.129929,-0.02362 c 0.06693,-0.01181 1.393785,-0.169302 2.941121,-0.354352 1.547337,-0.185051 3.118298,-0.370101 3.484462,-0.417348 0.370103,-0.04331 1.665454,-0.200799 2.882063,-0.346478 1.216609,-0.145678 2.220606,-0.27167 2.232418,-0.279544 0.0079,-0.01181 -0.08662,-0.622085 -0.208672,-1.358349 l -0.224423,-1.338664 -0.17324,-0.0079 c -0.09843,-0.0039 -2.61433,0.303168 -5.590887,0.677206 z"
         style="fill:#82d1f5;fill-opacity:1;stroke:none;stroke-width:0.00393724" />
      <path
         inkscape:connector-curvature="0"
         id="path12"
         d="m 50.000292,54.33546 c 0,0.01575 0.366164,0.409474 0.818947,0.878006 4.161667,4.342781 19.020829,19.875211 19.072013,19.942144 0.03544,0.04331 0.07481,0.07087 0.08662,0.05906 0.01181,-0.01181 -2.303289,-3.941182 -5.145979,-8.736746 l -5.165665,-8.71706 -4.33097,-1.547337 c -5.468833,-1.952875 -5.334966,-1.90169 -5.334966,-1.878067 z"
         style="fill:#82d1f5;fill-opacity:1;stroke:none;stroke-width:0.00393724" />
      <path
         inkscape:connector-curvature="0"
         id="path14"
         d="m 95.16049,56.040287 -4.823127,1.720576 -5.165664,8.71706 c -2.842692,4.795564 -5.161728,8.724934 -5.153853,8.728871 0.01968,0.01969 0.559088,-0.539402 3.590768,-3.708884 1.448904,-1.515839 5.575138,-5.83106 9.165906,-9.587191 3.590767,-3.756132 6.693314,-6.992547 6.886241,-7.193346 0.19686,-0.2008 0.350409,-0.370101 0.338601,-0.381913 -0.0079,-0.0079 -2.185171,0.759888 -4.838872,1.704827 z"
         style="fill:#82d1f5;fill-opacity:1;stroke:none;stroke-width:0.00393724" />
      <path
         inkscape:connector-curvature="0"
         id="path16"
         d="m 62.174252,58.07978 c 0.01575,0.05512 4.319158,7.319338 11.736927,19.808277 0.04331,0.07087 0.08662,0.122056 0.09449,0.110245 0.0079,-0.0079 0,-1.476467 -0.02362,-3.26004 -0.02362,-1.779634 -0.063,-4.70107 -0.08268,-6.488579 -0.09449,-7.622506 -0.114181,-8.791868 -0.145679,-8.819428 -0.01575,-0.01575 -2.590707,-0.330729 -5.720816,-0.704767 -3.13011,-0.374038 -5.732629,-0.685081 -5.783813,-0.696893 -0.07481,-0.01575 -0.09056,-0.0079 -0.07481,0.05118 z"
         style="fill:#82d1f5;fill-opacity:1;stroke:none;stroke-width:0.00393724" />
      <path
         inkscape:connector-curvature="0"
         id="path18"
         d="m 81.990406,58.717614 -5.748378,0.692954 -0.02756,0.669332 c -0.01181,0.370101 -0.04331,2.456841 -0.07087,4.645949 -0.03937,3.622265 -0.07087,6.114541 -0.141741,11.437696 -0.01575,1.224483 -0.01181,1.85838 0.01575,1.830818 0.063,-0.063 11.788111,-19.835838 11.811734,-19.914583 0.0079,-0.03937 -0.0039,-0.06693 -0.03544,-0.063 -0.0315,0.0039 -2.641892,0.318917 -5.803498,0.70083 z"
         style="fill:#82d1f5;fill-opacity:1;stroke:none;stroke-width:0.00393724" />
    </g>
  </g>
  <defs
     id="defs3751" />
</svg>
